<svg id="Capa_1" data-name="Capa 1" xmlns="http://www.w3.org/2000/svg" viewBox="0 0 269.49 221.42"><defs><style>.cls-1,.cls-2{fill:#ffffff;}.cls-2{font-size:33px;stroke:#ffffff;stroke-miterlimit:10;stroke-width:0.25px;font-family:Avenir-Black, Avenir;font-weight:800;}</style></defs><path class="cls-1" d="M139.38,79.19c-7.91-6.84-8.42-13.11-2-20.92.91-1.11,1.85-2.21,2.68-3.38C146,46.53,144,38.09,135,33.48l-2.42-1.23a4.79,4.79,0,0,0,.19,1c3.05,5.75,2.36,11.07-1.8,16a21.2,21.2,0,0,0-1.84,2.58C121.63,64,129.07,77,139.38,79.19Z"/><path class="cls-1" d="M123.78,68.9c-4.55-4.9-4.68-9.23-.62-14.45.58-.75,1.17-1.48,1.7-2.27,3.77-5.61,2.8-11.47-2.46-14.85L121,36.42a2.93,2.93,0,0,0,.09.68,10.21,10.21,0,0,1-1.53,11,14.58,14.58,0,0,0-1.17,1.73C113.56,58,117.66,67.16,123.78,68.9Z"/><path class="cls-1" d="M143.21,73.29c-1.32-2.23-1.89-4.51-.59-6.88a24.6,24.6,0,0,1,2.14-3,6,6,0,0,0,.9-6.52c-1.57,2.16-3.1,4.34-4.72,6.46C137.85,67.37,138.52,70.66,143.21,73.29Z"/><path class="cls-1" d="M237.28,117.63l1.41-1.25c5.41-4.77,5.32-7.1-.47-11.65-11.56-9.08-11.56-9.08-3.3-21.33,3.83-5.68,2.87-9.41-3.58-11.34-12.36-3.7-15.62-2.32-9.83-19.74.11-.35.31-.67.41-1,1.31-4.68-.1-7-5.06-7.63-3.1-.38-6.27-.14-9.4-.3-6.51-.34-8-2-8.16-8.48,0-1.48,0-3,0-4.43,0-9.84-1.51-11-11-8.84-13,3-13,3-17.79-9.59-3.07-8-4.58-8.55-11.81-3.9-11.71,7.53-11.71,7.53-20.62-3.35-5.22-6.37-7.54-6.41-12.63.18-9.07,11.74-8.63,11.28-20.34,3.26-7.45-5.1-9.45-4.13-12.29,4.52-3.27,10-4.52,14.38-16.08,9.14A14.19,14.19,0,0,0,74,21.4c-7.75-1.79-9.57-.67-9.53,7.07.08,15.22-1.69,15.07-15.35,15-7.29,0-9,2.47-7,9.29C46.22,67,46.22,67,32.26,72c-6.46,2.32-7.7,5.67-3.78,11.21,9,12.76,9.21,12.53-3.49,21.74-5.48,4-5.48,7.1-.34,11.35.59.48,1.2.93,1.82,1.37H0v4.07H269.49v-4.07ZM44.15,110.51a87.76,87.76,0,0,1,87.56-87.26c48.31,0,87.88,39.64,87.62,88,0,2.15-.11,4.28-.28,6.39H186.32c9.84-6.66,14.6-16.24,10.83-22.11-2.11-3.28-6.61-4.72-12.22-4,.23-1.41.4-2.81.53-4.18a6.07,6.07,0,0,0-1.59-4.67,6.35,6.35,0,0,0-4.67-2.06h-91a6.35,6.35,0,0,0-4.67,2.06,6.07,6.07,0,0,0-1.59,4.67,59.84,59.84,0,0,0,11.32,30.26H44.43C44.24,115.28,44.14,112.91,44.15,110.51Zm130.5,6.3a59.55,59.55,0,0,0,8.95-19c3.85-.89,6.88-.4,8,1.32.91,1.41.54,3.68-1,6.23a26.36,26.36,0,0,1-8.21,7.92A29.65,29.65,0,0,1,174.65,116.81ZM36.83,108.74A94.7,94.7,0,0,1,133,16c52.08.49,95.69,44.67,93.53,99.29,0,.8-.09,1.59-.14,2.37h-4c.17-2.24.27-4.5.28-6.78.12-49.78-40.66-90.66-90.42-90.81a90.83,90.83,0,0,0-91.24,90.6c0,2.36.1,4.69.27,7H37C36.84,114.7,36.76,111.74,36.83,108.74Z"/><path class="cls-1" d="M0,165.85H42.78c-3,11.63-2.12,11.74,11.8,12.12,7.76.21,9.39,1.79,9.76,9.42.73,15.17.73,15.17,15.16,11,6.58-1.92,9-.83,11.51,5.48.95,2.39,1.47,4.94,2.37,7.35,1.91,5.1,4.63,6.19,9.4,3.5,2.85-1.6,5.37-3.8,8.17-5.52,3.5-2.17,6.81-2.59,9.6,1.37a101.92,101.92,0,0,0,6.46,8.19c3.15,3.61,6,3.61,9.21,0,2.06-2.34,3.81-4.94,5.81-7.34,3.84-4.62,6.38-4.95,11.25-1.65,2.58,1.74,5.15,3.51,7.79,5.14,4.14,2.56,6.9,1.28,8.48-3.17,1-2.78,2.35-5.46,3.06-8.3,1.26-5,4.42-6.56,9.07-5.49,2.85.66,5.57,1.9,8.38,2.74q8.73,2.59,9.18-6.47c.14-2.95.12-5.91.06-8.86-.08-4.51,2.34-6.76,6.58-7.24,1.82-.21,3.69,0,6.81,0,9.18.67,11.93-2.24,7.81-12.2h49v-4.06H0Zm199.57,0c-16.24,19.91-40.94,32.61-68.15,32.2a87.3,87.3,0,0,1-67.6-32.2Zm-68.31,39.49a94.23,94.23,0,0,1-76.77-39.49h5.18a90.78,90.78,0,0,0,72.13,35.47c29.1.28,55.25-13.76,71.93-35.47h4.83C191,189.87,162.55,205.84,131.26,205.34Z"/><text class="cls-2" transform="translate(8.73 154.6)">DRINK COFFEE</text></svg>